<svg width="1277" height="304" viewBox="0 0 1277 304" fill="none" xmlns="http://www.w3.org/2000/svg">
<path d="M462.94 235.76C451.133 235.76 440.86 233.613 432.12 229.32C423.38 225.027 416.633 219.047 411.88 211.38C407.127 203.713 404.75 194.82 404.75 184.7H424.99C424.99 190.987 426.37 196.813 429.13 202.18C431.89 207.393 436.107 211.61 441.78 214.83C447.453 217.897 454.583 219.43 463.17 219.43C470.07 219.43 476.127 218.433 481.34 216.44C486.553 214.447 490.617 211.457 493.53 207.47C496.597 203.483 498.13 198.5 498.13 192.52C498.13 186.54 496.75 181.633 493.99 177.8C491.383 173.813 487.78 170.517 483.18 167.91C478.58 165.303 473.443 163.08 467.77 161.24C462.25 159.247 456.577 157.253 450.75 155.26C436.797 150.353 426.523 144.45 419.93 137.55C413.49 130.497 410.27 121.833 410.27 111.56C410.27 103.433 412.263 96.2267 416.25 89.94C420.39 83.5 426.217 78.44 433.73 74.76C441.397 71.08 450.443 69.24 460.87 69.24C471.143 69.24 480.037 71.1567 487.55 74.99C495.217 78.8233 501.197 84.1133 505.49 90.86C509.783 97.4533 511.93 105.12 511.93 113.86H491.69C491.69 108.187 490.463 103.203 488.01 98.91C485.557 94.6167 481.953 91.2433 477.2 88.79C472.447 86.1833 466.467 84.88 459.26 84.88C453.587 84.88 448.45 85.7233 443.85 87.41C439.403 89.0967 435.877 91.78 433.27 95.46C430.817 99.14 429.59 103.893 429.59 109.72C429.59 114.627 430.587 118.69 432.58 121.91C434.573 125.13 437.487 127.967 441.32 130.42C445.307 132.72 450.137 135.02 455.81 137.32C461.637 139.467 468.307 141.92 475.82 144.68C483.64 147.44 490.617 150.737 496.75 154.57C503.037 158.25 507.943 162.927 511.47 168.6C515.15 174.273 516.99 181.48 516.99 190.22C516.99 198.04 514.997 205.477 511.01 212.53C507.023 219.43 501.043 225.027 493.07 229.32C485.097 233.613 475.053 235.76 462.94 235.76ZM533.11 233V72H631.09V87.87H552.43V144.45H619.36V160.09H552.43V233H533.11ZM691.01 233V72H719.53L771.05 193.9H771.97L823.26 72H851.78V233H832.46V101.21H831.54L785.08 210H757.94L711.25 101.21H710.33V233H691.01ZM924.015 235.76C913.128 235.76 903.468 233.307 895.035 228.4C886.601 223.34 879.931 216.363 875.025 207.47C870.271 198.423 867.895 187.92 867.895 175.96C867.895 163.847 870.271 153.343 875.025 144.45C879.778 135.557 886.371 128.657 894.805 123.75C903.391 118.69 913.281 116.16 924.475 116.16C935.668 116.16 945.251 118.69 953.225 123.75C961.198 128.657 967.331 135.173 971.625 143.3C975.918 151.273 978.065 160.013 978.065 169.52C978.065 171.053 978.065 172.74 978.065 174.58C978.065 176.267 977.988 178.183 977.835 180.33H882.385V165.38H958.975C958.515 154.493 954.988 146.06 948.395 140.08C941.955 134.1 933.828 131.11 924.015 131.11C917.421 131.11 911.288 132.567 905.615 135.48C899.941 138.393 895.341 142.763 891.815 148.59C888.441 154.417 886.755 161.777 886.755 170.67V177.11C886.755 186.617 888.518 194.513 892.045 200.8C895.571 207.087 900.171 211.84 905.845 215.06C911.671 218.127 917.728 219.66 924.015 219.66C931.988 219.66 938.658 217.82 944.025 214.14C949.391 210.46 953.301 205.4 955.755 198.96H974.845C972.851 206.013 969.555 212.3 964.955 217.82C960.355 223.34 954.605 227.71 947.705 230.93C940.958 234.15 933.061 235.76 924.015 235.76ZM1042.33 235.76C1031.29 235.76 1021.71 233.153 1013.58 227.94C1005.61 222.573 999.396 215.367 994.95 206.32C990.656 197.273 988.51 187.153 988.51 175.96C988.51 164.767 990.656 154.647 994.95 145.6C999.396 136.553 1005.84 129.423 1014.27 124.21C1022.7 118.843 1032.9 116.16 1044.86 116.16C1055.44 116.16 1064.1 118.383 1070.85 122.83C1077.75 127.277 1083.04 132.26 1086.72 137.78V72H1106.04V233H1089.94L1088.1 211.15H1087.18C1083.96 216.67 1079.97 221.27 1075.22 224.95C1070.62 228.477 1065.56 231.16 1060.04 233C1054.52 234.84 1048.62 235.76 1042.33 235.76ZM1046.93 218.97C1054.9 218.97 1061.8 217.207 1067.63 213.68C1073.61 210 1078.21 204.94 1081.43 198.5C1084.65 192.06 1086.26 184.547 1086.26 175.96C1086.26 167.373 1084.65 159.86 1081.43 153.42C1078.21 146.98 1073.61 141.997 1067.63 138.47C1061.8 134.79 1054.9 132.95 1046.93 132.95C1038.96 132.95 1032.06 134.79 1026.23 138.47C1020.4 141.997 1015.88 146.98 1012.66 153.42C1009.59 159.86 1008.06 167.373 1008.06 175.96C1008.06 184.547 1009.59 192.06 1012.66 198.5C1015.88 204.94 1020.4 210 1026.23 213.68C1032.06 217.207 1038.96 218.97 1046.93 218.97ZM1129.51 233V118.92H1148.83V233H1129.51ZM1139.17 96.15C1135.34 96.15 1132.12 94.8467 1129.51 92.24C1126.91 89.6333 1125.6 86.4133 1125.6 82.58C1125.6 78.9 1126.91 75.7567 1129.51 73.15C1132.12 70.5433 1135.34 69.24 1139.17 69.24C1142.85 69.24 1146 70.5433 1148.6 73.15C1151.21 75.7567 1152.51 78.9767 1152.51 82.81C1152.51 86.49 1151.21 89.6333 1148.6 92.24C1146 94.8467 1142.85 96.15 1139.17 96.15ZM1209.61 235.76C1200.57 235.76 1192.98 234.15 1186.84 230.93C1180.71 227.71 1176.11 223.417 1173.04 218.05C1170.13 212.683 1168.67 206.857 1168.67 200.57C1168.67 192.75 1170.67 186.157 1174.65 180.79C1178.79 175.423 1184.54 171.36 1191.9 168.6C1199.42 165.687 1208.23 164.23 1218.35 164.23H1249.17C1249.17 156.717 1248.02 150.507 1245.72 145.6C1243.42 140.693 1240.13 137.09 1235.83 134.79C1231.54 132.337 1226.4 131.11 1220.42 131.11C1212.91 131.11 1206.39 133.027 1200.87 136.86C1195.35 140.693 1191.98 146.597 1190.75 154.57H1170.97C1171.89 146.29 1174.58 139.313 1179.02 133.64C1183.62 127.967 1189.45 123.673 1196.5 120.76C1203.71 117.693 1211.68 116.16 1220.42 116.16C1231.31 116.16 1240.28 118.153 1247.33 122.14C1254.54 125.973 1259.83 131.417 1263.2 138.47C1266.73 145.37 1268.49 153.497 1268.49 162.85V233H1252.39L1250.55 213.45H1249.63C1247.49 217.13 1244.96 220.35 1242.04 223.11C1239.28 225.87 1236.22 228.17 1232.84 230.01C1229.47 231.85 1225.79 233.23 1221.8 234.15C1217.97 235.223 1213.91 235.76 1209.61 235.76ZM1213.06 219.43C1218.89 219.43 1224.03 218.357 1228.47 216.21C1232.92 213.91 1236.68 210.843 1239.74 207.01C1242.81 203.177 1245.11 198.883 1246.64 194.13C1248.33 189.223 1249.17 184.24 1249.17 179.18H1219.96C1212.45 179.18 1206.39 180.1 1201.79 181.94C1197.19 183.627 1193.9 186.003 1191.9 189.07C1189.91 192.137 1188.91 195.663 1188.91 199.65C1188.91 203.637 1189.83 207.163 1191.67 210.23C1193.67 213.143 1196.43 215.443 1199.95 217.13C1203.63 218.663 1208 219.43 1213.06 219.43Z" fill="url(#paint0_linear_82_23)"/>
<path d="M113.664 0.352065C119.595 -0.280033 132.854 0.131331 139.467 0.134105L190.172 0.147578L353.673 0.0742633C353.717 5.33554 353.832 9.60607 352.873 14.8325C349.936 30.7304 338.717 43.8424 323.467 49.2028C312.438 53.0425 288.161 51.751 275.341 51.7387L166.366 51.7308L135.268 51.7268C128.138 51.7216 120.474 51.3674 113.448 52.4203C90.5227 55.8562 74.0434 73.3093 70.2088 95.9887C69.5224 100.19 69.5668 105.369 70.0669 109.587C72.5739 130.723 88.3546 148.37 108.965 153.465C119.729 156.125 127.758 152.871 137.31 160.458C142.715 164.75 146.179 171.026 146.927 177.888C148.561 192.803 137.64 205.77 122.541 206.583C118.452 206.803 114.27 206.476 110.197 206.035C90.1696 203.917 71.2094 195.949 55.682 183.124C34.6044 165.824 21.2436 140.875 18.5269 113.742C15.7366 86.2255 24.1076 58.7405 41.762 37.4505C60.2573 15.1452 85.032 2.98706 113.664 0.352065Z" fill="#075949"/>
<path d="M118.987 77.5954C120.81 77.293 132.814 77.4543 135.01 77.4571L171.71 77.4915L301.98 77.4816C302.008 91.2626 296.527 104.483 286.754 114.2C271.35 129.538 256.572 129.274 237.03 129.264L210.902 129.243C224.23 153.927 228.419 180.022 221.107 207.413C213.994 233.977 196.6 256.618 172.769 270.338C147.066 285.108 119.742 287.351 91.4521 279.715C76.1172 275.038 62.0696 266.886 50.4037 255.889C28.6881 235.392 18.8107 210.131 18.0034 180.66C25.5434 190.677 34.482 199.561 44.5452 207.04C63.7872 221.354 86.6576 229.985 110.559 231.953C116.799 232.463 122.88 232.717 129.094 231.765C142.726 229.691 154.958 222.24 163.054 211.078C171.121 199.95 174.42 186.064 172.219 172.496C168.728 151.278 152.479 134.429 131.402 130.171C121.757 128.242 115.096 130.922 105.946 124.197C100.379 120.074 96.6951 113.894 95.7159 107.037C94.7346 100.189 96.5291 93.2318 100.699 87.7121C105.336 81.6035 111.516 78.579 118.987 77.5954Z" fill="#8AE464"/>
<defs>
<linearGradient id="paint0_linear_82_23" x1="399" y1="154.5" x2="711.894" y2="154.5" gradientUnits="userSpaceOnUse">
<stop stop-color="#B3B3B3"/>
<stop offset="1" stop-color="white"/>
</linearGradient>
</defs>
</svg>
