<svg width="399" height="399" viewBox="0 0 399 399" fill="none" xmlns="http://www.w3.org/2000/svg">
<path d="M126.664 58.3521C132.595 57.72 145.854 58.1313 152.467 58.1341L203.172 58.1476L366.673 58.0743C366.717 63.3355 366.832 67.6061 365.873 72.8325C362.936 88.7304 351.717 101.842 336.467 107.203C325.438 111.043 301.161 109.751 288.341 109.739L179.366 109.731L148.268 109.727C141.138 109.722 133.474 109.367 126.448 110.42C103.523 113.856 87.0434 131.309 83.2088 153.989C82.5224 158.19 82.5668 163.369 83.0669 167.587C85.5739 188.723 101.355 206.37 121.965 211.465C132.729 214.125 140.758 210.871 150.31 218.458C155.715 222.75 159.179 229.026 159.927 235.888C161.561 250.803 150.64 263.77 135.541 264.583C131.452 264.803 127.27 264.476 123.197 264.035C103.17 261.917 84.2094 253.949 68.682 241.124C47.6044 223.824 34.2436 198.875 31.5269 171.742C28.7366 144.226 37.1076 116.741 54.762 95.4505C73.2573 73.1452 98.032 60.9871 126.664 58.3521Z" fill="#075949"/>
<path d="M131.987 135.595C133.81 135.293 145.814 135.454 148.01 135.457L184.71 135.492L314.98 135.482C315.008 149.263 309.527 162.483 299.754 172.2C284.35 187.538 269.572 187.274 250.03 187.264L223.902 187.243C237.23 211.927 241.419 238.022 234.107 265.413C226.994 291.977 209.6 314.618 185.769 328.338C160.066 343.108 132.742 345.351 104.452 337.715C89.1172 333.038 75.0696 324.886 63.4037 313.889C41.6881 293.392 31.8107 268.131 31.0034 238.66C38.5434 248.677 47.482 257.561 57.5452 265.04C76.7872 279.354 99.6576 287.985 123.559 289.953C129.799 290.463 135.88 290.717 142.094 289.765C155.726 287.691 167.958 280.24 176.054 269.078C184.121 257.95 187.42 244.064 185.219 230.496C181.728 209.278 165.479 192.429 144.402 188.171C134.757 186.242 128.096 188.922 118.946 182.197C113.379 178.074 109.695 171.894 108.716 165.037C107.735 158.189 109.529 151.232 113.699 145.712C118.336 139.604 124.516 136.579 131.987 135.595Z" fill="#8AE464"/>
</svg>
